# xmcd
# 
# Track frame offsets:
#     150
#     17670
#     41730
#     65975
#     92285
#     114115
#     135722
#     156737
#     174912
#     197705
#     215847
#     233592
#     253485
#     270677
#     288762
# 
# Disc length: 4117
# 
# Revision: 13
# Processed by: cddbd v1.5.2PL0 Copyright (c) Steve Scherf et al.
# Submitted via: fre:ac v1.0.31
# 
DISCID=dc10130f
DTITLE=Various Artist - フロム イエスタデイ
DYEAR=1992
DGENRE=J-POP
TTITLE0=桑田佳祐 - 悲しい気持ち (JUST A MAN IN LOVE)
TTITLE1=桑田佳祐 - いつか何処かで (I FEEL THE ECHO)
TTITLE2=桑田佳祐 - SHE'S A BIG TEASER
TTITLE3=桑田佳祐 - LADY LUCK
TTITLE4=桑田佳祐 - BLUE～こんな夜には踊れない
TTITLE5=桑田佳祐 - 誰かの風の後
TTITLE6=KUWATA BAND - BAN BAN BAN
TTITLE7=KUWATA BAND - スキップ・ビート (SKIPPED BEAT)
TTITLE8=KUWATA BAND - MERRY X'MAS IN SUMMER
TTITLE9=KUWATA BAND - ONE DAY
TTITLE10=KUWATA BAND - SHE'LL BE TELLIN' (真夜中へデビューしろ!!)
TTITLE11=KUWATA BAND - YOU NEVER KNOW (恋することのもどかしさ)
TTITLE12=KUWATA BAND - RED LIGHT GIRL (街の女に恋してた)
TTITLE13=SUPER CHIMPANZEE - 北京のお嬢さん
TTITLE14=SUPER CHIMPANZEE - クリといつまでも
EXTD=YEAR: 1992
EXTT0=
EXTT1=
EXTT2=
EXTT3=
EXTT4=
EXTT5=
EXTT6=
EXTT7=
EXTT8=
EXTT9=
EXTT10=
EXTT11=
EXTT12=
EXTT13=
EXTT14=
PLAYORDER=
